<svg version="1.1" id="Layer_1" xmlns="http://www.w3.org/2000/svg" xmlns:xlink="http://www.w3.org/1999/xlink" x="0px" y="0px" width="100%" viewBox="0 0 1920 1080" enable-background="new 0 0 1920 1080" xml:space="preserve">
  <path fill="#DADADA" opacity="1.000000" stroke="none" d="
M1393.923096,675.071533 
	C1394.321899,678.291443 1394.720825,681.511414 1395.100586,684.577454 
	C1396.952637,685.039307 1398.499878,685.425171 1399.895752,685.773254 
	C1403.296997,682.550110 1406.713501,679.312500 1410.413086,675.806519 
	C1410.970703,677.836914 1411.941650,679.746582 1411.932983,681.651855 
	C1411.908691,686.969238 1413.215332,690.861328 1419.305786,690.690063 
	C1422.343140,687.450378 1425.338745,684.255249 1428.982666,680.368530 
	C1430.140869,684.693848 1431.068970,688.164856 1431.999878,691.635010 
	C1433.003540,695.376221 1437.651611,696.765381 1440.341553,694.013550 
	C1443.107178,691.183960 1445.692505,688.178284 1449.039185,684.499756 
	C1450.286499,689.240967 1451.541626,692.413269 1451.844971,695.674133 
	C1452.084839,698.252563 1452.779541,699.614075 1455.346802,700.005920 
	C1457.991333,700.409729 1460.248535,700.490356 1461.981445,697.714417 
	C1463.684814,694.985779 1465.977051,692.624817 1468.894775,689.006531 
	C1470.129150,693.939392 1470.836060,697.758972 1472.113892,701.377014 
	C1472.620483,702.811646 1474.257935,704.547485 1475.625854,704.796021 
	C1477.254517,705.091858 1479.625732,704.444336 1480.829590,703.308899 
	C1483.731812,700.571838 1486.141479,697.312561 1489.284912,693.638306 
	C1490.398682,698.653320 1491.171387,702.277222 1492.013184,705.884949 
	C1492.986450,710.055969 1497.000488,711.399414 1500.007690,708.435791 
	C1502.957886,705.528381 1505.674805,702.384460 1509.115845,698.673889 
	C1510.252808,703.287109 1511.619263,706.799133 1511.883179,710.392151 
	C1512.252197,715.415283 1516.180176,714.729248 1519.041870,715.257996 
	C1520.187866,715.469727 1521.894165,713.717957 1523.053223,712.565857 
	C1525.463745,710.169617 1527.679321,707.576965 1530.528931,704.458923 
	C1531.406250,708.073364 1531.959106,711.454407 1533.096313,714.625854 
	C1533.783936,716.543274 1535.099487,719.240234 1536.627197,719.625305 
	C1539.164307,720.264648 1542.385254,722.569885 1544.880981,718.727966 
	C1546.715332,715.904114 1549.163330,713.479004 1552.049438,710.024536 
	C1553.300293,715.559326 1554.319214,720.068298 1555.343872,724.601929 
	C1558.269287,725.332153 1561.214355,726.067261 1564.224731,726.818665 
	C1566.978516,723.640869 1569.832764,720.347107 1573.318726,716.324402 
	C1574.300903,720.085144 1575.697998,723.315125 1575.872925,726.609985 
	C1576.124023,731.340271 1579.926147,731.122925 1582.544434,731.611206 
	C1584.483154,731.972717 1587.165161,730.726868 1588.866699,729.377991 
	C1590.986450,727.697510 1592.438721,725.174866 1594.261841,722.913269 
	C1598.520752,727.235474 1594.150024,735.240967 1602.787231,737.330811 
	C1611.199585,739.366211 1611.581909,730.497864 1617.657104,729.185120 
	C1618.398438,732.400452 1618.977417,735.968201 1620.113403,739.348877 
	C1620.606323,740.815918 1622.005493,742.517578 1623.401733,743.058960 
	C1638.308594,748.840149 1653.404541,754.148865 1668.192505,760.211670 
	C1672.153442,761.835632 1675.840088,765.102844 1678.569214,768.488892 
	C1681.407349,772.010498 1680.075439,776.117554 1675.597168,777.920349 
	C1668.627075,780.726135 1661.466431,783.756775 1654.119873,784.781921 
	C1639.180176,786.866394 1624.076294,787.868896 1609.013916,788.950073 
	C1595.833374,789.896240 1582.623291,790.675781 1569.414673,790.935547 
	C1540.986206,791.494812 1512.549805,791.634033 1484.117676,792.020081 
	C1467.183716,792.249878 1450.251831,792.843933 1433.318604,792.862305 
	C1418.718018,792.878174 1404.112549,792.445312 1389.517212,791.965454 
	C1374.312012,791.465576 1359.109253,790.803833 1343.918823,789.969666 
	C1328.786743,789.138611 1313.661255,788.137146 1298.551514,786.967896 
	C1283.500732,785.803223 1268.452271,784.536621 1253.441406,782.949341 
	C1237.061035,781.217224 1220.734253,778.978516 1204.356567,777.217163 
	C1202.502930,777.017822 1200.394775,778.315308 1198.533203,779.191895 
	C1179.666992,788.075806 1160.992310,797.388245 1141.932251,805.831848 
	C1124.423218,813.588379 1106.698120,820.948303 1088.718262,827.527100 
	C1069.391113,834.598877 1049.808350,841.076843 1030.053467,846.842590 
	C1013.299438,851.732483 996.195496,855.483276 979.138855,859.251282 
	C970.872253,861.077332 962.393799,862.352173 953.949402,862.872009 
	C940.880005,863.676697 927.753113,863.987976 914.659058,863.825073 
	C901.957092,863.667114 889.190796,863.301025 876.587463,861.853088 
	C857.637756,859.676147 838.805420,856.476868 819.923218,853.712219 
	C819.823242,852.943970 819.723328,852.175659 819.623352,851.407410 
	C841.044373,839.289795 862.465393,827.172180 883.886414,815.054565 
	C849.157043,817.007263 815.529724,812.938782 782.258057,803.885010 
	C821.398499,790.933167 857.154663,772.309082 889.144836,745.436340 
	C877.909119,742.884583 867.188477,740.439331 856.462769,738.016296 
	C839.757629,734.242554 822.988770,730.730652 806.355652,726.662964 
	C778.914368,719.952087 751.494812,713.131775 724.191833,705.883972 
	C705.845032,701.013794 687.622742,695.621033 669.510376,689.934509 
	C643.876709,681.886597 618.234985,673.809692 592.893860,664.899841 
	C566.334290,655.561523 540.043091,645.435791 513.830872,635.153564 
	C508.257782,632.967468 503.197784,633.292664 497.719208,634.023926 
	C489.321808,635.144897 480.902649,636.129517 472.472382,636.967834 
	C467.078583,637.504211 461.627411,638.149597 456.238220,637.914551 
	C441.533936,637.273376 426.848877,636.191162 412.156219,635.283569 
	C411.992645,634.696594 411.829071,634.109619 411.665497,633.522705 
	C425.040070,626.477844 438.414673,619.433044 452.285461,612.126831 
	C441.080353,607.657471 430.210754,603.328003 419.347046,598.983887 
	C416.952118,598.026306 414.487732,597.189453 412.210724,595.999573 
	C404.155945,591.790405 395.952667,592.565796 387.177704,593.509888 
	C375.992157,594.713257 364.569244,593.715210 353.248962,593.628052 
	C353.033813,593.626404 352.822357,593.152893 352.257538,592.481689 
	C358.903900,589.093628 365.444824,585.759277 372.733398,582.043762 
	C343.003357,569.662476 313.858398,557.524841 284.708618,545.385193 
	C256.226196,608.608337 222.657501,668.847961 169.606201,717.820801 
	C170.629929,710.892761 171.411118,705.050659 172.369751,699.237671 
	C174.190704,688.195801 176.125366,677.172668 177.990250,666.137939 
	C179.911346,654.770630 181.889496,643.411926 183.686188,632.024780 
	C185.236893,622.196655 186.572937,612.334656 187.994415,602.486267 
	C189.641861,591.072266 191.335358,579.664368 192.897720,568.238708 
	C193.718063,562.239319 194.531677,556.223450 194.946777,550.187378 
	C196.077118,533.751282 198.173187,517.263977 197.665131,500.865814 
	C197.150681,484.261658 194.197479,467.709106 191.891434,451.192719 
	C190.300308,439.796783 188.332199,428.428497 185.934692,417.175262 
	C180.995956,393.994171 175.948624,370.828247 170.411285,347.784576 
	C162.899948,316.526031 154.841293,285.399323 147.130539,254.188065 
	C145.693726,248.372131 144.790329,242.424408 144.629852,235.826630 
	C149.469620,239.762970 154.551514,243.439148 159.107910,247.679947 
	C180.727097,267.801605 197.213684,291.903076 211.671600,317.383728 
	C225.613235,341.954498 239.456146,366.624146 252.113708,391.866455 
	C261.475311,410.535889 268.849548,430.200745 277.147278,449.405670 
	C278.804565,453.241425 280.839905,456.924744 282.317535,460.823639 
	C283.438812,463.782288 285.456268,464.384186 288.112915,463.976807 
	C303.056427,461.685364 317.977600,459.243103 332.936829,457.061188 
	C343.416168,455.532715 353.952881,454.401917 364.447479,452.972504 
	C371.811737,451.969421 379.148193,450.762451 386.681427,449.618591 
	C380.994995,444.045929 375.378998,438.542328 368.901062,432.194031 
	C385.628845,431.448669 400.965210,431.851105 414.590240,439.526215 
	C422.524811,443.995880 429.935333,442.709381 437.838074,441.585144 
	C446.541931,440.346893 455.256012,439.180206 463.967621,437.996918 
	C473.486053,436.704010 482.996613,435.344879 492.529999,434.172119 
	C499.502930,433.314362 506.514069,432.772430 513.495850,431.980774 
	C524.699097,430.710419 535.883118,429.266724 547.092529,428.056335 
	C554.763123,427.228058 562.475952,426.791504 570.146851,425.965363 
	C581.197876,424.775177 592.220520,423.322418 603.269531,422.112000 
	C610.771118,421.290253 618.308105,420.791412 625.809692,419.969879 
	C636.836670,418.762207 647.841919,417.358124 658.864685,416.110199 
	C665.704224,415.335907 672.572021,414.802582 679.404175,413.972137 
	C692.186523,412.418396 704.952209,410.727661 717.724731,409.093140 
	C728.398438,407.727234 739.137573,406.739746 749.731445,404.911041 
	C769.130676,401.562317 788.932617,399.574463 807.013550,390.933075 
	C822.171448,383.688690 834.132996,372.316132 843.424988,358.697418 
	C853.225525,344.333374 862.033569,329.223145 870.351013,313.936066 
	C878.274048,299.373962 882.755432,283.507263 883.950562,266.866974 
	C884.738586,255.894958 886.107422,244.884689 885.778931,233.934677 
	C885.441772,222.695206 883.289917,211.515411 882.067383,200.294769 
	C881.559326,195.632065 881.401733,190.931198 882.157410,185.660187 
	C885.441833,190.084946 888.748047,194.493729 892.006897,198.937241 
	C907.117554,219.540878 922.489197,239.960464 937.232666,260.823853 
	C949.537231,278.235931 960.689697,296.466614 973.116150,313.786743 
	C983.867920,328.772797 995.701111,342.982483 1007.042114,357.546356 
	C1023.328918,378.461487 1046.248901,389.157104 1070.224243,397.858032 
	C1089.315552,404.786499 1108.580566,411.375946 1128.105225,416.933044 
	C1150.471924,423.299011 1173.111084,428.802765 1195.811646,433.876495 
	C1225.983643,440.620178 1256.376221,446.372070 1286.587036,452.949310 
	C1314.417236,459.008240 1342.177856,465.405182 1369.885986,472.001801 
	C1398.808716,478.887543 1427.738770,485.789734 1456.468140,493.426849 
	C1482.902344,500.453796 1509.161743,508.179291 1535.338379,516.123108 
	C1564.291992,524.909607 1593.101074,534.179749 1621.904419,543.452148 
	C1646.817017,551.472107 1671.715698,559.551819 1696.454956,568.085327 
	C1707.509277,571.898376 1718.089233,576.913879 1726.352783,585.779358 
	C1735.759155,595.870850 1735.428101,610.077820 1721.388428,616.085022 
	C1713.702759,619.373718 1705.703369,621.974548 1697.738159,624.554749 
	C1684.556396,628.824768 1674.058838,636.417664 1666.193237,647.941406 
	C1664.757446,650.045166 1661.171509,651.797241 1658.594971,651.774719 
	C1653.196411,651.727600 1649.933228,653.372498 1648.549561,658.734192 
	C1647.908325,661.219055 1646.632935,663.540283 1645.202759,667.007935 
	C1642.608521,663.144714 1640.605835,659.772217 1638.181152,656.737000 
	C1637.161133,655.460388 1635.305786,654.394653 1633.719238,654.215698 
	C1632.899658,654.123291 1631.553223,656.041260 1630.939453,657.293335 
	C1629.244385,660.751343 1627.809692,664.337097 1625.847534,668.848511 
	C1622.809937,663.961731 1620.134644,659.657959 1617.292114,655.084961 
	C1609.350708,656.131409 1610.699585,664.182739 1606.601440,669.468750 
	C1605.052734,667.274353 1603.495728,665.119019 1601.996094,662.924377 
	C1601.082275,661.587341 1600.332764,660.133972 1599.375610,658.831238 
	C1597.262573,655.955322 1594.336426,656.211304 1592.822388,659.482117 
	C1591.126343,663.145813 1589.629761,666.901794 1587.540161,671.805603 
	C1585.113403,667.901001 1583.327271,664.606323 1581.109253,661.634033 
	C1579.984253,660.126343 1578.150757,658.441040 1576.502563,658.287720 
	C1575.469482,658.191711 1573.875122,660.638184 1573.079224,662.219055 
	C1571.450317,665.453857 1570.189697,668.874023 1568.274902,673.407715 
	C1565.478882,668.777832 1563.526978,665.103149 1561.110107,661.765259 
	C1560.163208,660.457520 1558.239990,659.451538 1556.628296,659.215393 
	C1555.909058,659.109924 1554.649780,661.134155 1554.003906,662.382385 
	C1552.224609,665.820801 1550.639771,669.359924 1548.528809,673.805054 
	C1545.550415,668.864685 1543.001709,664.636963 1540.256714,660.083618 
	C1530.177368,658.413635 1534.531860,670.321533 1528.561035,673.270813 
	C1526.414551,669.993713 1524.534790,666.600403 1522.109497,663.656372 
	C1521.005005,662.315552 1518.843506,661.290833 1517.120972,661.227661 
	C1516.132568,661.191345 1514.774658,663.223022 1514.088257,664.579224 
	C1512.558105,667.602905 1511.345215,670.787109 1509.669800,674.680054 
	C1506.956421,670.708984 1504.708496,667.264160 1502.297974,663.937073 
	C1500.125244,660.938293 1496.684082,661.185852 1494.974609,664.439270 
	C1493.615967,667.024902 1492.409790,669.693726 1491.209351,672.358582 
	C1490.108643,674.801819 1489.113037,675.158752 1487.772949,672.488525 
	C1486.610107,670.171509 1485.465942,667.775940 1483.865723,665.772888 
	C1482.856201,664.509216 1481.034668,663.240417 1479.555908,663.214661 
	C1478.395386,663.194458 1476.778198,664.858276 1476.108887,666.157715 
	C1474.612183,669.063721 1473.580322,672.209229 1471.790771,676.675476 
	C1468.523193,671.357666 1466.048706,667.330444 1463.457520,663.113159 
	C1455.473389,663.668518 1458.065674,672.925354 1453.027100,676.206604 
	C1448.221191,673.052795 1449.129883,664.258118 1441.643433,663.698364 
	C1439.356689,668.646240 1437.367798,672.949646 1435.041016,677.984070 
	C1432.314209,673.737061 1430.177612,670.311829 1427.940063,666.953857 
	C1425.974365,664.003784 1423.706055,664.124207 1422.256958,667.289856 
	C1420.653931,670.792419 1419.222290,674.373474 1417.155518,679.239929 
	C1414.741699,675.465454 1412.958252,672.354004 1410.835205,669.494446 
	C1409.793335,668.091309 1408.254028,666.683960 1406.670288,666.239990 
	C1406.032837,666.061340 1404.406128,668.322449 1403.695923,669.711548 
	C1402.010010,673.009216 1400.602661,676.449158 1398.762329,680.544861 
	C1397.288574,678.169495 1396.228149,676.460327 1394.725830,674.247192 
	C1394.079346,673.205505 1393.875122,672.667725 1393.670776,672.129944 
	C1393.394897,672.237122 1393.119019,672.344360 1392.843140,672.451599 
	C1393.203125,673.324890 1393.563110,674.198181 1393.923096,675.071533 
M796.320374,399.926605 
	C766.967041,407.618866 736.956787,411.427368 706.915466,415.054871 
	C691.249084,416.946564 675.594238,418.937927 659.916809,420.732147 
	C643.905823,422.564575 627.877686,424.250671 611.849487,425.927673 
	C594.498291,427.742981 577.129761,429.394318 559.784424,431.262207 
	C539.800354,433.414215 519.820251,435.614624 499.862823,437.997955 
	C480.233582,440.342041 460.594788,442.668335 441.038483,445.536407 
	C430.095245,447.141296 419.851410,448.559204 409.481659,442.052551 
	C401.061768,436.769379 390.765472,436.773041 379.866089,436.354156 
	C385.407898,442.019501 390.189575,446.907776 395.506683,452.343414 
	C392.157257,453.028046 390.071472,453.565186 387.952301,453.870972 
	C353.747375,458.806824 319.533356,463.679810 285.338928,468.687012 
	C282.475555,469.106293 281.009094,468.265991 279.941406,465.718079 
	C278.139862,461.418945 276.053101,457.240143 274.214935,452.955505 
	C259.642181,418.987396 245.863068,384.651428 227.294937,352.548645 
	C209.626389,322.001190 192.794693,290.891113 169.344482,264.160461 
	C164.034271,258.107422 157.961945,252.722931 152.240417,247.030701 
	C151.784317,247.324417 151.328217,247.618134 150.872101,247.911865 
	C151.168716,249.604095 151.384476,251.315170 151.773651,252.985825 
	C165.697189,312.756500 180.017014,372.438507 193.393570,432.331238 
	C199.005692,457.459198 203.555908,483.021759 201.869186,508.958130 
	C200.264130,533.638916 198.134598,558.334106 194.913391,582.849243 
	C190.694443,614.957458 185.184280,646.896118 180.214432,678.905396 
	C178.913910,687.281616 177.557648,695.649170 176.226974,704.020691 
	C186.438004,694.017090 195.808487,683.699951 204.908936,673.149841 
	C219.431580,656.313721 231.334793,637.672729 242.186249,618.318420 
	C255.706268,594.204529 269.651855,570.300659 279.621979,544.408081 
	C281.200378,540.308899 282.650055,539.461792 286.841919,541.251953 
	C312.871063,552.367981 339.016052,563.213379 365.140869,574.104675 
	C370.878754,576.496765 376.690277,578.712280 383.556610,581.441895 
	C377.893311,584.390503 373.332794,586.764954 368.772247,589.139404 
	C368.910034,589.533264 369.047791,589.927124 369.185577,590.320923 
	C374.143280,589.977600 379.096893,589.439270 384.059631,589.334412 
	C392.498291,589.156067 400.760773,585.848694 409.431305,590.140259 
	C419.547302,595.147339 430.345642,598.780273 440.865265,602.965881 
	C447.726440,605.695862 454.618469,608.348389 463.023651,611.632202 
	C449.653748,618.511475 437.663849,624.680725 425.673950,630.849976 
	C427.052948,631.872986 428.138977,631.994629 429.228424,632.056641 
	C430.558990,632.132324 431.896515,632.106445 433.223969,632.213013 
	C453.858063,633.868225 474.422150,633.582642 494.915253,630.325317 
	C499.738434,629.558655 505.080444,627.901917 509.436218,629.187561 
	C519.452881,632.143921 528.974670,636.748840 538.758728,640.525635 
	C597.512451,663.205322 657.135559,683.345337 718.021301,699.438293 
	C790.654846,718.636230 863.012268,739.302063 938.093811,747.347839 
	C941.613586,747.725037 945.095093,748.459167 949.478333,749.170471 
	C946.215698,755.349854 943.803162,760.852661 940.590515,765.840271 
	C927.504211,786.156799 910.662537,802.883972 890.225342,815.690674 
	C875.563599,824.878174 860.315125,833.129944 845.319275,841.783203 
	C840.668030,844.467102 835.986633,847.098755 830.169312,850.408447 
	C833.259094,851.194519 834.820740,851.686890 836.418762,851.984314 
	C867.943176,857.849854 899.774292,859.294373 931.776428,859.166626 
	C954.558777,859.075623 976.821838,855.909851 998.894287,850.590393 
	C1042.061279,840.187256 1084.015259,826.186584 1124.592163,808.170532 
	C1148.168457,797.702576 1171.516357,786.721130 1195.042358,776.138123 
	C1198.390015,774.632263 1202.240112,773.017639 1205.727661,773.267456 
	C1218.808594,774.204590 1231.823975,776.011658 1244.885254,777.272827 
	C1262.576904,778.981079 1280.280762,780.575806 1297.993652,782.046753 
	C1308.760010,782.940857 1319.550781,783.552429 1330.335083,784.215881 
	C1351.228271,785.501282 1372.120117,787.701660 1393.020630,787.798218 
	C1445.663696,788.041443 1498.311523,787.367676 1550.956665,786.961243 
	C1562.088257,786.875305 1573.231445,786.621826 1584.343140,785.987488 
	C1604.084961,784.860352 1623.859619,783.889221 1643.513794,781.832947 
	C1652.975098,780.843018 1662.322754,777.946167 1671.466919,775.095032 
	C1676.076538,773.657776 1676.096436,770.759033 1672.257202,767.849548 
	C1670.148682,766.251709 1667.894287,764.625244 1665.442749,763.736389 
	C1646.210327,756.763306 1627.239746,748.786499 1607.570801,743.356323 
	C1564.919922,731.581299 1521.875610,721.236694 1479.041138,710.119141 
	C1435.235840,698.749695 1391.472290,687.218811 1347.731689,675.602722 
	C1339.674561,673.463074 1331.814697,670.580444 1323.863770,668.040771 
	C1325.515259,666.780762 1326.954102,666.275146 1328.417847,666.187866 
	C1346.840942,665.089417 1365.267212,664.044739 1383.693481,663.000671 
	C1395.299316,662.343018 1406.903931,661.657043 1418.513672,661.076660 
	C1439.109497,660.047058 1459.705200,659.002808 1480.308105,658.130188 
	C1493.444946,657.573730 1506.595947,657.360779 1519.737549,656.905090 
	C1526.884766,656.657288 1534.030396,656.305298 1541.168213,655.860168 
	C1566.550293,654.277161 1591.933350,652.704834 1617.306396,650.984436 
	C1630.403931,650.096313 1643.503052,649.105835 1656.548218,647.676331 
	C1659.095337,647.397156 1662.007935,645.382690 1663.710571,643.312195 
	C1672.826660,632.226624 1683.627075,623.921265 1697.630493,619.803650 
	C1705.728516,617.422546 1713.903687,614.763550 1721.369751,610.919922 
	C1729.389404,606.791260 1730.627563,596.716125 1724.421021,590.068665 
	C1720.841675,586.235046 1716.673340,582.507751 1712.039917,580.195862 
	C1702.832764,575.601746 1693.331909,571.385559 1683.578735,568.134766 
	C1650.565918,557.131409 1617.444458,546.444153 1584.259277,535.970093 
	C1555.211670,526.802063 1526.232666,517.308228 1496.848022,509.342346 
	C1447.879639,496.067444 1398.777588,483.199005 1349.419922,471.472717 
	C1305.430908,461.021881 1261.100220,451.948059 1216.772949,442.996887 
	C1164.478638,432.436920 1112.973145,419.298218 1063.180664,399.900452 
	C1042.019653,391.656738 1021.892212,381.623718 1006.914185,364.021515 
	C994.749939,349.725983 983.004395,334.998932 972.064392,319.752075 
	C947.324036,285.272217 923.212097,250.341629 898.801453,215.624680 
	C895.254333,210.579865 891.470032,205.701828 887.083252,199.786133 
	C887.083252,201.853531 887.009949,202.519196 887.093994,203.164352 
	C889.369690,220.629532 892.294006,238.154129 889.820129,255.753159 
	C887.745239,270.514099 885.905273,285.616150 881.170471,299.623871 
	C873.795532,321.442627 862.115479,341.419891 848.253052,359.910919 
	C834.852051,377.786346 819.050537,392.761230 796.320374,399.926605 
M879.218018,809.917358 
	C882.360840,809.586121 885.544983,809.466187 888.634399,808.862000 
	C891.509827,808.299683 894.776184,807.897705 897.024780,806.262390 
	C913.471497,794.301453 927.289734,779.764221 938.182068,762.552246 
	C940.155212,759.434387 941.540161,755.944336 943.467834,752.083008 
	C928.997986,750.266296 915.461670,748.710449 901.978027,746.785400 
	C897.986145,746.215515 894.876587,746.411011 891.507019,749.194885 
	C864.069641,771.862854 833.722656,789.545776 800.195435,801.659302 
	C799.221985,802.010986 798.351746,802.648376 796.504517,803.662476 
	C824.267395,809.006775 851.074951,812.052795 879.218018,809.917358 
M1384.998779,677.524231 
	C1387.274902,674.829407 1389.551025,672.134583 1391.867676,669.391663 
	C1390.890991,668.270935 1389.137329,664.323853 1386.259399,668.557129 
	C1384.090820,671.747070 1383.171997,675.786682 1381.697021,679.448059 
	C1381.922729,679.577087 1382.148438,679.706116 1382.374268,679.835144 
	C1383.077881,679.231750 1383.781372,678.628357 1384.998779,677.524231 
z"/>
  <path fill="#93A7B2" opacity="1.000000" stroke="none" d="
M796.711914,399.838928 
	C819.050537,392.761230 834.852051,377.786346 848.253052,359.910919 
	C862.115479,341.419891 873.795532,321.442627 881.170471,299.623871 
	C885.905273,285.616150 887.745239,270.514099 889.820129,255.753159 
	C892.294006,238.154129 889.369690,220.629532 887.093994,203.164352 
	C887.009949,202.519196 887.083252,201.853531 887.083252,199.786133 
	C891.470032,205.701828 895.254333,210.579865 898.801453,215.624680 
	C923.212097,250.341629 947.324036,285.272217 972.064392,319.752075 
	C983.004395,334.998932 994.749939,349.725983 1006.914185,364.021515 
	C1021.892212,381.623718 1042.019653,391.656738 1063.180664,399.900452 
	C1112.973145,419.298218 1164.478638,432.436920 1216.772949,442.996887 
	C1261.100220,451.948059 1305.430908,461.021881 1349.419922,471.472717 
	C1398.777588,483.199005 1447.879639,496.067444 1496.848022,509.342346 
	C1526.232666,517.308228 1555.211670,526.802063 1584.259277,535.970093 
	C1617.444458,546.444153 1650.565918,557.131409 1683.578735,568.134766 
	C1693.331909,571.385559 1702.832764,575.601746 1712.039917,580.195862 
	C1716.673340,582.507751 1720.841675,586.235046 1724.421021,590.068665 
	C1730.627563,596.716125 1729.389404,606.791260 1721.369751,610.919922 
	C1713.903687,614.763550 1705.728516,617.422546 1697.630493,619.803650 
	C1683.627075,623.921265 1672.826660,632.226624 1663.710571,643.312195 
	C1662.007935,645.382690 1659.095337,647.397156 1656.548218,647.676331 
	C1643.503052,649.105835 1630.403931,650.096313 1617.306396,650.984436 
	C1591.933350,652.704834 1566.550293,654.277161 1541.168213,655.860168 
	C1534.030396,656.305298 1526.884766,656.657288 1519.737549,656.905090 
	C1506.595947,657.360779 1493.444946,657.573730 1480.308105,658.130188 
	C1459.705200,659.002808 1439.109497,660.047058 1418.513672,661.076660 
	C1406.903931,661.657043 1395.299316,662.343018 1383.693481,663.000671 
	C1365.267212,664.044739 1346.840942,665.089417 1328.417847,666.187866 
	C1326.954102,666.275146 1325.515259,666.780762 1323.863770,668.040771 
	C1331.814697,670.580444 1339.674561,673.463074 1347.731689,675.602722 
	C1391.472290,687.218811 1435.235840,698.749695 1479.041138,710.119141 
	C1521.875610,721.236694 1564.919922,731.581299 1607.570801,743.356323 
	C1627.239746,748.786499 1646.210327,756.763306 1665.442749,763.736389 
	C1667.894287,764.625244 1670.148682,766.251709 1672.257202,767.849548 
	C1676.096436,770.759033 1676.076538,773.657776 1671.466919,775.095032 
	C1662.322754,777.946167 1652.975098,780.843018 1643.513794,781.832947 
	C1623.859619,783.889221 1604.084961,784.860352 1584.343140,785.987488 
	C1573.231445,786.621826 1562.088257,786.875305 1550.956665,786.961243 
	C1498.311523,787.367676 1445.663696,788.041443 1393.020630,787.798218 
	C1372.120117,787.701660 1351.228271,785.501282 1330.335083,784.215881 
	C1319.550781,783.552429 1308.760010,782.940857 1297.993652,782.046753 
	C1280.280762,780.575806 1262.576904,778.981079 1244.885254,777.272827 
	C1231.823975,776.011658 1218.808594,774.204590 1205.727661,773.267456 
	C1202.240112,773.017639 1198.390015,774.632263 1195.042358,776.138123 
	C1171.516357,786.721130 1148.168457,797.702576 1124.592163,808.170532 
	C1084.015259,826.186584 1042.061279,840.187256 998.894287,850.590393 
	C976.821838,855.909851 954.558777,859.075623 931.776428,859.166626 
	C899.774292,859.294373 867.943176,857.849854 836.418762,851.984314 
	C834.820740,851.686890 833.259094,851.194519 830.169312,850.408447 
	C835.986633,847.098755 840.668030,844.467102 845.319275,841.783203 
	C860.315125,833.129944 875.563599,824.878174 890.225342,815.690674 
	C910.662537,802.883972 927.504211,786.156799 940.590515,765.840271 
	C943.803162,760.852661 946.215698,755.349854 949.478333,749.170471 
	C945.095093,748.459167 941.613586,747.725037 938.093811,747.347839 
	C863.012268,739.302063 790.654846,718.636230 718.021301,699.438293 
	C657.135559,683.345337 597.512451,663.205322 538.758728,640.525635 
	C528.974670,636.748840 519.452881,632.143921 509.436218,629.187561 
	C505.080444,627.901917 499.738434,629.558655 494.915253,630.325317 
	C474.422150,633.582642 453.858063,633.868225 433.223969,632.213013 
	C431.896515,632.106445 430.558990,632.132324 429.228424,632.056641 
	C428.138977,631.994629 427.052948,631.872986 425.673950,630.849976 
	C437.663849,624.680725 449.653748,618.511475 463.023651,611.632202 
	C454.618469,608.348389 447.726440,605.695862 440.865265,602.965881 
	C430.345642,598.780273 419.547302,595.147339 409.431305,590.140259 
	C400.760773,585.848694 392.498291,589.156067 384.059631,589.334412 
	C379.096893,589.439270 374.143280,589.977600 369.185577,590.320923 
	C369.047791,589.927124 368.910034,589.533264 368.772247,589.139404 
	C373.332794,586.764954 377.893311,584.390503 383.556610,581.441895 
	C376.690277,578.712280 370.878754,576.496765 365.140869,574.104675 
	C339.016052,563.213379 312.871063,552.367981 286.841919,541.251953 
	C282.650055,539.461792 281.200378,540.308899 279.621979,544.408081 
	C269.651855,570.300659 255.706268,594.204529 242.186249,618.318420 
	C231.334793,637.672729 219.431580,656.313721 204.908936,673.149841 
	C195.808487,683.699951 186.438004,694.017090 176.226974,704.020691 
	C177.557648,695.649170 178.913910,687.281616 180.214432,678.905396 
	C185.184280,646.896118 190.694443,614.957458 194.913391,582.849243 
	C198.134598,558.334106 200.264130,533.638916 201.869186,508.958130 
	C203.555908,483.021759 199.005692,457.459198 193.393570,432.331238 
	C180.017014,372.438507 165.697189,312.756500 151.773651,252.985825 
	C151.384476,251.315170 151.168716,249.604095 150.872101,247.911865 
	C151.328217,247.618134 151.784317,247.324417 152.240417,247.030701 
	C157.961945,252.722931 164.034271,258.107422 169.344482,264.160461 
	C192.794693,290.891113 209.626389,322.001190 227.294937,352.548645 
	C245.863068,384.651428 259.642181,418.987396 274.214935,452.955505 
	C276.053101,457.240143 278.139862,461.418945 279.941406,465.718079 
	C281.009094,468.265991 282.475555,469.106293 285.338928,468.687012 
	C319.533356,463.679810 353.747375,458.806824 387.952301,453.870972 
	C390.071472,453.565186 392.157257,453.028046 395.506683,452.343414 
	C390.189575,446.907776 385.407898,442.019501 379.866089,436.354156 
	C390.765472,436.773041 401.061768,436.769379 409.481659,442.052551 
	C419.851410,448.559204 430.095245,447.141296 441.038483,445.536407 
	C460.594788,442.668335 480.233582,440.342041 499.862823,437.997955 
	C519.820251,435.614624 539.800354,433.414215 559.784424,431.262207 
	C577.129761,429.394318 594.498291,427.742981 611.849487,425.927673 
	C627.877686,424.250671 643.905823,422.564575 659.916809,420.732147 
	C675.594238,418.937927 691.249084,416.946564 706.915466,415.054871 
	C736.956787,411.427368 766.967041,407.618866 796.711914,399.838928 
M1228.736816,617.151367 
	C1232.166870,597.112488 1231.721558,577.143860 1228.273926,557.118652 
	C1224.856201,537.267273 1217.859741,518.743530 1208.691162,500.766296 
	C1223.735596,569.559631 1216.800049,636.790527 1195.391968,703.152100 
	C1210.482666,676.219238 1223.190796,648.524902 1228.736816,617.151367 
M1153.855469,652.354248 
	C1177.047485,597.568909 1174.323975,543.804321 1147.465698,490.996826 
	C1153.091919,524.622131 1157.013672,558.337769 1154.049805,592.550476 
	C1151.116455,626.410522 1144.234497,659.467346 1133.585815,691.813721 
	C1134.195557,691.992371 1134.805420,692.171082 1135.415283,692.349792 
	C1141.452759,679.250977 1147.490356,666.152161 1153.855469,652.354248 
M1197.090820,550.377747 
	C1193.945435,531.243042 1186.766724,513.507874 1178.291138,496.142853 
	C1183.728149,529.538025 1187.945068,562.951660 1184.937622,596.809814 
	C1181.935791,630.604553 1175.777832,663.803040 1165.112549,696.192322 
	C1166.212769,695.818542 1166.814453,695.293762 1167.155518,694.634155 
	C1177.639771,674.353516 1187.551270,653.849365 1193.601685,631.683899 
	C1200.855347,605.109863 1202.432495,578.333618 1197.090820,550.377747 
M1342.368774,558.796265 
	C1347.373779,566.331726 1355.612671,569.252136 1364.132446,566.510742 
	C1370.667358,564.407959 1375.056152,558.982971 1374.994507,553.084167 
	C1374.934814,547.376160 1370.837891,541.493835 1364.268677,540.280518 
	C1359.476318,539.395386 1353.898193,539.663391 1349.344482,541.296936 
	C1342.063843,543.908752 1339.780396,550.515625 1342.368774,558.796265 
M1164.307373,699.101074 
	C1164.415649,698.995789 1164.523804,698.890503 1164.632080,698.785156 
	C1164.524658,698.804016 1164.417114,698.822815 1164.307373,699.101074 
M1133.488403,694.525452 
	C1133.488403,694.525452 1133.466309,694.468323 1133.488403,694.525452 
M1194.496094,705.515320 
	C1194.496094,705.515320 1194.487183,705.476746 1194.496094,705.515320 
z"/>
  <path fill="#5C7A87" opacity="1.000000" stroke="none" d="
M878.754517,809.948059 
	C851.074951,812.052795 824.267395,809.006775 796.504517,803.662476 
	C798.351746,802.648376 799.221985,802.010986 800.195435,801.659302 
	C833.722656,789.545776 864.069641,771.862854 891.507019,749.194885 
	C894.876587,746.411011 897.986145,746.215515 901.978027,746.785400 
	C915.461670,748.710449 928.997986,750.266296 943.467834,752.083008 
	C941.540161,755.944336 940.155212,759.434387 938.182068,762.552246 
	C927.289734,779.764221 913.471497,794.301453 897.024780,806.262390 
	C894.776184,807.897705 891.509827,808.299683 888.634399,808.862000 
	C885.544983,809.466187 882.360840,809.586121 878.754517,809.948059 
z"/>
  <path fill="#000000" opacity="1.000000" stroke="none" d="
M1394.112549,674.875732 
	C1393.563110,674.198181 1393.203125,673.324890 1392.843140,672.451599 
	C1393.119019,672.344360 1393.394897,672.237122 1393.670776,672.129944 
	C1393.875122,672.667725 1394.079346,673.205505 1394.475098,674.008911 
	C1394.544922,674.409668 1394.423584,674.544800 1394.112549,674.875732 
z"/>
  <path fill="#D1D2D2" opacity="1.000000" stroke="none" d="
M1228.611816,617.562439 
	C1223.190796,648.524902 1210.482666,676.219238 1195.391968,703.152100 
	C1216.800049,636.790527 1223.735596,569.559631 1208.691162,500.766296 
	C1217.859741,518.743530 1224.856201,537.267273 1228.273926,557.118652 
	C1231.721558,577.143860 1232.166870,597.112488 1228.611816,617.562439 
M1218.771729,556.851135 
	C1220.665771,595.378174 1216.215820,633.285706 1207.178467,671.188538 
	C1228.818726,652.722351 1234.807373,541.610107 1215.328857,525.334473 
	C1216.467651,535.622925 1217.591187,545.773865 1218.771729,556.851135 
z"/>
  <path fill="#D0D1D2" opacity="1.000000" stroke="none" d="
M1153.691650,652.703857 
	C1147.490356,666.152161 1141.452759,679.250977 1135.415283,692.349792 
	C1134.805420,692.171082 1134.195557,691.992371 1133.585815,691.813721 
	C1144.234497,659.467346 1151.116455,626.410522 1154.049805,592.550476 
	C1157.013672,558.337769 1153.091919,524.622131 1147.465698,490.996826 
	C1174.323975,543.804321 1177.047485,597.568909 1153.691650,652.703857 
M1156.087036,534.384155 
	C1161.174072,578.105103 1154.677124,620.879822 1145.605957,663.490173 
	C1156.912231,640.083557 1164.616699,615.635437 1166.514648,589.642883 
	C1168.419312,563.559082 1163.967407,538.429932 1154.927734,514.136414 
	C1154.484741,514.209351 1154.041748,514.282349 1153.598755,514.355286 
	C1154.406128,520.727844 1155.213379,527.100342 1156.087036,534.384155 
z"/>
  <path fill="#D1D2D2" opacity="1.000000" stroke="none" d="
M1197.167725,550.800598 
	C1202.432495,578.333618 1200.855347,605.109863 1193.601685,631.683899 
	C1187.551270,653.849365 1177.639771,674.353516 1167.155518,694.634155 
	C1166.814453,695.293762 1166.212769,695.818542 1165.112549,696.192322 
	C1175.777832,663.803040 1181.935791,630.604553 1184.937622,596.809814 
	C1187.945068,562.951660 1183.728149,529.538025 1178.291138,496.142853 
	C1186.766724,513.507874 1193.945435,531.243042 1197.167725,550.800598 
M1182.150391,637.639954 
	C1180.314575,647.319153 1178.478882,656.998352 1176.628174,666.755554 
	C1198.450439,645.479858 1204.261475,540.411377 1184.784058,520.292603 
	C1185.860352,531.782654 1187.357666,543.252991 1187.895264,554.768127 
	C1188.437744,566.392700 1188.249878,578.067444 1187.946289,589.708862 
	C1187.783569,595.947388 1186.813110,602.176086 1186.012939,608.384216 
	C1184.792725,617.851013 1183.403809,627.296204 1182.150391,637.639954 
z"/>
  <path fill="#313132" opacity="1.000000" stroke="none" d="
M1342.205811,558.439941 
	C1339.780396,550.515625 1342.063843,543.908752 1349.344482,541.296936 
	C1353.898193,539.663391 1359.476318,539.395386 1364.268677,540.280518 
	C1370.837891,541.493835 1374.934814,547.376160 1374.994507,553.084167 
	C1375.056152,558.982971 1370.667358,564.407959 1364.132446,566.510742 
	C1355.612671,569.252136 1347.373779,566.331726 1342.205811,558.439941 
M1358.304565,548.103638 
	C1358.998535,549.923645 1359.233521,552.283264 1360.534302,553.390137 
	C1361.545898,554.250977 1364.363525,554.197693 1365.499268,553.359497 
	C1366.600098,552.546936 1367.027344,550.179199 1366.899536,548.561768 
	C1366.808472,547.408691 1365.220093,545.396484 1364.455078,545.466370 
	C1362.540894,545.641296 1360.714966,546.782776 1358.304565,548.103638 
z"/>
  <path fill="#D1D2D2" opacity="1.000000" stroke="none" d="
M1164.308594,698.971313 
	C1164.417114,698.822815 1164.524658,698.804016 1164.632080,698.785156 
	C1164.523804,698.890503 1164.415649,698.995789 1164.308594,698.971313 
z"/>
  <path fill="#D0D1D2" opacity="1.000000" stroke="none" d="
M1133.477295,694.496887 
	C1133.466309,694.468323 1133.488403,694.525452 1133.477295,694.496887 
z"/>
  <path fill="#D1D2D2" opacity="1.000000" stroke="none" d="
M1194.491699,705.496033 
	C1194.487183,705.476746 1194.496094,705.515320 1194.491699,705.496033 
z"/>
  <path fill="#5E5E5E" opacity="1.000000" stroke="none" d="
M1218.743164,556.388000 
	C1217.591187,545.773865 1216.467651,535.622925 1215.328857,525.334473 
	C1234.807373,541.610107 1228.818726,652.722351 1207.178467,671.188538 
	C1216.215820,633.285706 1220.665771,595.378174 1218.743164,556.388000 
z"/>
  <path fill="#5E5E5E" opacity="1.000000" stroke="none" d="
M1156.053833,533.928528 
	C1155.213379,527.100342 1154.406128,520.727844 1153.598755,514.355286 
	C1154.041748,514.282349 1154.484741,514.209351 1154.927734,514.136414 
	C1163.967407,538.429932 1168.419312,563.559082 1166.514648,589.642883 
	C1164.616699,615.635437 1156.912231,640.083557 1145.605957,663.490173 
	C1154.677124,620.879822 1161.174072,578.105103 1156.053833,533.928528 
z"/>
  <path fill="#5E5E5E" opacity="1.000000" stroke="none" d="
M1182.118408,637.195251 
	C1183.403809,627.296204 1184.792725,617.851013 1186.012939,608.384216 
	C1186.813110,602.176086 1187.783569,595.947388 1187.946289,589.708862 
	C1188.249878,578.067444 1188.437744,566.392700 1187.895264,554.768127 
	C1187.357666,543.252991 1185.860352,531.782654 1184.789551,520.292114 
	C1204.261475,540.411377 1198.450439,645.479858 1176.628174,666.755554 
	C1178.478882,656.998352 1180.314575,647.319153 1182.118408,637.195251 
z"/>
  <path fill="#D5D5D5" opacity="1.000000" stroke="none" d="
M1358.579102,547.820068 
	C1360.714966,546.782776 1362.540894,545.641296 1364.455078,545.466370 
	C1365.220093,545.396484 1366.808472,547.408691 1366.899536,548.561768 
	C1367.027344,550.179199 1366.600098,552.546936 1365.499268,553.359497 
	C1364.363525,554.197693 1361.545898,554.250977 1360.534302,553.390137 
	C1359.233521,552.283264 1358.998535,549.923645 1358.579102,547.820068 
z"/>
</svg>
